<svg width="458" height="166" viewBox="0 0 458 166" fill="none" xmlns="http://www.w3.org/2000/svg">
<path d="M19.1758 104.427H28.5215C30.2793 104.387 31.8223 104.788 33.1504 105.628C34.0293 106.135 34.7129 106.829 35.2012 107.708C35.6699 108.684 35.9043 109.885 35.9043 111.311C35.9043 113.03 35.3281 114.593 34.1758 115.999C32.9648 117.444 31.1582 118.186 28.7559 118.225H19.1758V104.427ZM12.7012 141.018H19.1758V124.348H29.0195C33.4141 124.27 36.7539 122.864 39.0391 120.13C41.2656 117.532 42.3789 114.651 42.3789 111.487C42.3789 109.143 41.9395 107.112 41.0605 105.393C40.2207 103.616 39.127 102.249 37.7793 101.292C36.1777 100.022 34.5957 99.1824 33.0332 98.7722C31.4707 98.4597 29.8496 98.3035 28.1699 98.3035H12.7012V141.018ZM45.1035 125.784C45.1035 128.987 45.3672 131.428 45.8945 133.108C46.4414 134.788 47.2812 136.243 48.4141 137.473C49.2539 138.43 50.4258 139.29 51.9297 140.052C53.4141 140.891 55.3184 141.331 57.6426 141.37C60.0449 141.331 61.9883 140.891 63.4727 140.052C64.2734 139.7 64.9277 139.28 65.4355 138.792C66.002 138.362 66.4805 137.923 66.8711 137.473C68.082 136.243 68.9414 134.788 69.4492 133.108C69.9375 131.428 70.1816 128.987 70.1816 125.784C70.1816 122.581 69.9375 120.12 69.4492 118.401C68.9414 116.721 68.082 115.305 66.8711 114.153C66.0703 113.137 64.9375 112.229 63.4727 111.428C61.9883 110.667 60.0449 110.266 57.6426 110.227C55.3184 110.266 53.4141 110.667 51.9297 111.428C50.4258 112.229 49.2539 113.137 48.4141 114.153C47.2812 115.305 46.4414 116.721 45.8945 118.401C45.3672 120.12 45.1035 122.581 45.1035 125.784ZM64.0586 125.843C64.0586 127.913 63.9609 129.436 63.7656 130.413C63.5703 131.409 63.1699 132.288 62.5645 133.05C62.1152 133.635 61.4512 134.153 60.5723 134.602C59.7324 135.032 58.7559 135.247 57.6426 135.247C56.6074 135.247 55.6504 135.032 54.7715 134.602C53.9316 134.153 53.248 133.635 52.7207 133.05C52.1934 132.288 51.8125 131.409 51.5781 130.413C51.3438 129.436 51.2266 127.893 51.2266 125.784C51.2266 123.655 51.3438 122.093 51.5781 121.096C51.8125 120.139 52.1934 119.3 52.7207 118.577C53.248 117.893 53.9316 117.356 54.7715 116.966C55.6504 116.555 56.6074 116.35 57.6426 116.35C58.7559 116.35 59.7324 116.555 60.5723 116.966C61.4512 117.356 62.1152 117.893 62.5645 118.577C63.1699 119.3 63.5703 120.139 63.7656 121.096C63.9609 122.093 64.0586 123.675 64.0586 125.843ZM94.4688 132.083C92.9258 134.153 90.8652 135.208 88.2871 135.247C83.0918 135.344 80.4551 132.21 80.377 125.843C80.4551 119.436 83.0918 116.272 88.2871 116.35C90.8652 116.428 92.9258 117.493 94.4688 119.544L98.9805 115.53C97.6523 113.928 96.0898 112.649 94.293 111.692C92.4961 110.755 90.416 110.266 88.0527 110.227C84.459 110.188 81.3047 111.389 78.5898 113.831C75.7773 116.311 74.332 120.315 74.2539 125.843C74.332 131.311 75.7773 135.266 78.5898 137.708C81.3047 140.149 84.459 141.37 88.0527 141.37C90.416 141.331 92.4961 140.813 94.293 139.817C96.0898 138.86 97.6523 137.62 98.9805 136.096L94.4688 132.083ZM103.258 141.018H109.381V132.259L114.186 126.809L122.271 141.018H129.947L118.023 122.473L128.512 110.608H121.188L109.498 124.876H109.381V98.3035H103.258V141.018ZM157.252 128.128V123.089C157.213 119.085 155.973 115.94 153.531 113.655C151.129 111.409 148.189 110.266 144.713 110.227C143.268 110.227 141.803 110.491 140.318 111.018C138.814 111.546 137.457 112.405 136.246 113.596C135.055 114.768 134.078 116.37 133.316 118.401C132.555 120.393 132.174 122.893 132.174 125.901C132.174 129.026 132.613 131.565 133.492 133.518C134.293 135.55 135.338 137.132 136.627 138.264C137.291 138.811 138.004 139.27 138.766 139.641C139.488 140.071 140.23 140.413 140.992 140.667C142.516 141.135 144.078 141.37 145.68 141.37C149.879 141.409 153.531 139.768 156.637 136.448L152.213 132.669C150.26 134.641 148.043 135.628 145.562 135.628C143.434 135.628 141.715 134.983 140.406 133.694C139 132.425 138.297 130.569 138.297 128.128H157.252ZM138.297 123.089C138.414 120.725 139.049 118.938 140.201 117.727C141.373 116.575 142.877 115.999 144.713 115.999C146.549 115.999 148.053 116.575 149.225 117.727C150.416 118.938 151.051 120.725 151.129 123.089H138.297ZM164.02 110.608H160.973V115.266H164.02V133.518C164.02 135.921 164.723 137.757 166.129 139.026C167.496 140.354 169.254 141.018 171.402 141.018H174.596V135.247H172.311C170.826 135.286 170.104 134.534 170.143 132.991V115.266H174.596V110.608H170.143V101.35H164.02V110.608Z" fill="black"/>
<path d="M201.812 104.427H211.158C212.916 104.387 214.459 104.788 215.787 105.628C216.666 106.135 217.35 106.829 217.838 107.708C218.307 108.684 218.541 109.885 218.541 111.311C218.541 113.03 217.965 114.593 216.812 115.999C215.602 117.444 213.795 118.186 211.393 118.225H201.812V104.427ZM195.338 141.018H201.812V124.348H211.656C216.051 124.27 219.391 122.864 221.676 120.13C223.902 117.532 225.016 114.651 225.016 111.487C225.016 109.143 224.576 107.112 223.697 105.393C222.857 103.616 221.764 102.249 220.416 101.292C218.814 100.022 217.232 99.1824 215.67 98.7722C214.107 98.4597 212.486 98.3035 210.807 98.3035H195.338V141.018ZM230.348 141.018H236.471V122.708C236.51 120.481 237.154 118.87 238.404 117.874C239.518 116.858 240.855 116.35 242.418 116.35C243.805 116.35 245.143 116.858 246.432 117.874L250.885 112.571C249.068 111.048 246.939 110.266 244.498 110.227C241.236 110.227 238.6 111.428 236.588 113.831H236.471V110.608H230.348V141.018ZM251.119 125.784C251.119 128.987 251.383 131.428 251.91 133.108C252.457 134.788 253.297 136.243 254.43 137.473C255.27 138.43 256.441 139.29 257.945 140.052C259.43 140.891 261.334 141.331 263.658 141.37C266.061 141.331 268.004 140.891 269.488 140.052C270.289 139.7 270.943 139.28 271.451 138.792C272.018 138.362 272.496 137.923 272.887 137.473C274.098 136.243 274.957 134.788 275.465 133.108C275.953 131.428 276.197 128.987 276.197 125.784C276.197 122.581 275.953 120.12 275.465 118.401C274.957 116.721 274.098 115.305 272.887 114.153C272.086 113.137 270.953 112.229 269.488 111.428C268.004 110.667 266.061 110.266 263.658 110.227C261.334 110.266 259.43 110.667 257.945 111.428C256.441 112.229 255.27 113.137 254.43 114.153C253.297 115.305 252.457 116.721 251.91 118.401C251.383 120.12 251.119 122.581 251.119 125.784ZM270.074 125.843C270.074 127.913 269.977 129.436 269.781 130.413C269.586 131.409 269.186 132.288 268.58 133.05C268.131 133.635 267.467 134.153 266.588 134.602C265.748 135.032 264.771 135.247 263.658 135.247C262.623 135.247 261.666 135.032 260.787 134.602C259.947 134.153 259.264 133.635 258.736 133.05C258.209 132.288 257.828 131.409 257.594 130.413C257.359 129.436 257.242 127.893 257.242 125.784C257.242 123.655 257.359 122.093 257.594 121.096C257.828 120.139 258.209 119.3 258.736 118.577C259.264 117.893 259.947 117.356 260.787 116.966C261.666 116.555 262.623 116.35 263.658 116.35C264.771 116.35 265.748 116.555 266.588 116.966C267.467 117.356 268.131 117.893 268.58 118.577C269.186 119.3 269.586 120.139 269.781 121.096C269.977 122.093 270.074 123.675 270.074 125.843ZM283.521 131.731L279.244 135.921C283.209 139.553 287.672 141.37 292.633 141.37C296.285 141.331 299.283 140.491 301.627 138.85C303.99 137.249 305.191 134.973 305.23 132.024C305.23 129.505 304.576 127.425 303.268 125.784C301.861 124.104 299.576 123.147 296.412 122.913L291.373 122.532C289.889 122.376 288.854 122.014 288.268 121.448C287.623 120.94 287.32 120.344 287.359 119.661C287.359 118.587 287.76 117.708 288.561 117.024C289.322 116.341 290.66 115.999 292.574 115.999C294.254 115.999 295.738 116.243 297.027 116.731C298.336 117.278 299.576 117.971 300.748 118.811L304.527 114.387C303.043 113.098 301.363 112.073 299.488 111.311C298.512 110.96 297.467 110.686 296.354 110.491C295.24 110.315 293.98 110.227 292.574 110.227C289.332 110.227 286.656 111.009 284.547 112.571C282.379 114.134 281.275 116.477 281.236 119.602C281.275 122.2 282.115 124.221 283.756 125.667C285.357 127.151 287.438 128.01 289.996 128.245L295.387 128.714C296.52 128.753 297.428 128.997 298.111 129.446C298.775 129.876 299.107 130.637 299.107 131.731C299.107 132.962 298.551 133.919 297.438 134.602C296.324 135.286 294.889 135.628 293.131 135.628C289.205 135.628 286.002 134.329 283.521 131.731ZM311.441 153.323H317.564V137.766C318.678 138.86 319.898 139.719 321.227 140.344C322.457 141.028 323.854 141.37 325.416 141.37C327.311 141.331 328.932 140.95 330.279 140.227C331.646 139.524 332.75 138.587 333.59 137.415C334.43 136.419 335.006 135.139 335.318 133.577C335.611 132.014 335.758 129.436 335.758 125.843C335.758 122.151 335.611 119.534 335.318 117.991C335.006 116.428 334.43 115.169 333.59 114.212C331.871 111.653 329.146 110.325 325.416 110.227C322.213 110.325 319.596 111.507 317.564 113.772V110.608H311.441V153.323ZM323.57 135.247C322.203 135.247 321.119 134.954 320.318 134.368C319.479 133.802 318.863 133.059 318.473 132.141C318.102 131.223 317.857 130.198 317.74 129.065C317.623 127.991 317.564 126.917 317.564 125.843C317.564 124.69 317.623 123.548 317.74 122.415C317.857 121.341 318.102 120.344 318.473 119.427C318.863 118.509 319.479 117.766 320.318 117.2C321.119 116.634 322.203 116.35 323.57 116.35C325.016 116.35 326.158 116.594 326.998 117.083C327.838 117.61 328.434 118.333 328.785 119.251C329.176 120.13 329.439 121.145 329.576 122.298C329.615 123.45 329.635 124.632 329.635 125.843C329.635 126.995 329.615 128.118 329.576 129.212C329.439 130.325 329.176 131.341 328.785 132.259C328.434 133.137 327.838 133.86 326.998 134.427C326.158 134.973 325.016 135.247 323.57 135.247ZM366.197 128.128V123.089C366.158 119.085 364.918 115.94 362.477 113.655C360.074 111.409 357.135 110.266 353.658 110.227C352.213 110.227 350.748 110.491 349.264 111.018C347.76 111.546 346.402 112.405 345.191 113.596C344 114.768 343.023 116.37 342.262 118.401C341.5 120.393 341.119 122.893 341.119 125.901C341.119 129.026 341.559 131.565 342.438 133.518C343.238 135.55 344.283 137.132 345.572 138.264C346.236 138.811 346.949 139.27 347.711 139.641C348.434 140.071 349.176 140.413 349.938 140.667C351.461 141.135 353.023 141.37 354.625 141.37C358.824 141.409 362.477 139.768 365.582 136.448L361.158 132.669C359.205 134.641 356.988 135.628 354.508 135.628C352.379 135.628 350.66 134.983 349.352 133.694C347.945 132.425 347.242 130.569 347.242 128.128H366.197ZM347.242 123.089C347.359 120.725 347.994 118.938 349.146 117.727C350.318 116.575 351.822 115.999 353.658 115.999C355.494 115.999 356.998 116.575 358.17 117.727C359.361 118.938 359.996 120.725 360.074 123.089H347.242ZM372.613 141.018H378.736V122.708C378.775 120.481 379.42 118.87 380.67 117.874C381.783 116.858 383.121 116.35 384.684 116.35C386.07 116.35 387.408 116.858 388.697 117.874L393.15 112.571C391.334 111.048 389.205 110.266 386.764 110.227C383.502 110.227 380.865 111.428 378.854 113.831H378.736V110.608H372.613V141.018ZM396.168 141.018H402.291V110.608H396.168V141.018ZM396.168 104.427H402.291V98.3035H396.168V104.427ZM410.758 110.608H407.711V115.266H410.758V133.518C410.758 135.921 411.461 137.757 412.867 139.026C414.234 140.354 415.992 141.018 418.141 141.018H421.334V135.247H419.049C417.564 135.286 416.842 134.534 416.881 132.991V115.266H421.334V110.608H416.881V101.35H410.758V110.608ZM433.639 139.817L431.969 144.915C431.695 145.794 431.217 146.458 430.533 146.907C429.85 147.337 429.107 147.552 428.307 147.552H426.52V153.323H428.541C430.436 153.323 432.135 152.903 433.639 152.063C435.123 151.184 436.285 149.602 437.125 147.317L450.221 110.608H443.717L436.539 131.907H436.422L429.215 110.608H422.74L433.639 139.817Z" fill="#005A00"/>
<path fill-rule="evenodd" clip-rule="evenodd" d="M178 2L185.137 71.8751L218.817 82L252.862 71.8751L260 2H178Z" fill="white"/>
<path fill-rule="evenodd" clip-rule="evenodd" d="M186.923 70.1864L218.823 80.0285L251.078 70.1833L257.871 1.92218H180.129L186.923 70.1864ZM218.822 82C218.716 82 218.61 81.9846 218.507 81.9522L185.661 71.8172C185.276 71.6986 185.003 71.3749 184.965 70.9941L178.004 1.05126C177.978 0.78151 178.072 0.514841 178.264 0.314454C178.456 0.114067 178.729 0 179.015 0H258.986C259.271 0 259.544 0.114067 259.736 0.314454C259.929 0.514841 260.023 0.78151 259.995 1.05126L253.036 70.9941C252.997 71.3764 252.722 71.7016 252.336 71.8188L219.132 81.9538C219.032 81.9846 218.927 82 218.822 82Z" fill="#5E606F"/>
<path fill-rule="evenodd" clip-rule="evenodd" d="M189.438 70C189.381 70 189.322 69.9924 189.264 69.9741L188.466 69.7405C188.253 69.678 188.102 69.507 188.081 69.3056L188.003 68.5547C187.973 68.2754 188.2 68.0282 188.509 68.0022C188.817 67.9763 189.092 68.1808 189.121 68.4601L189.165 68.8783L189.612 69.0095C189.907 69.0965 190.068 69.3834 189.972 69.649C189.895 69.8642 189.675 70 189.438 70Z" fill="#5E606F"/>
<path fill-rule="evenodd" clip-rule="evenodd" d="M180.767 6.50508C180.46 6.50508 180.198 6.30763 180.168 6.04282L180.003 4.55656C179.972 4.27645 180.214 4.02849 180.545 4.00247C180.874 3.97491 181.17 4.18155 181.201 4.46013L181.367 5.94792C181.398 6.22803 181.155 6.476 180.824 6.50202C180.805 6.50355 180.786 6.50508 180.767 6.50508ZM181.098 9.47914C180.792 9.47914 180.53 9.28168 180.5 9.01841L180.334 7.53062C180.303 7.25051 180.546 7.00254 180.877 6.97652C181.207 6.9505 181.501 7.15561 181.533 7.43572L181.698 8.92351C181.729 9.20209 181.487 9.45159 181.156 9.47761C181.137 9.47914 181.117 9.47914 181.098 9.47914ZM181.43 12.4547C181.123 12.4547 180.861 12.2573 180.832 11.9925L180.666 10.5062C180.635 10.2261 180.878 9.97813 181.208 9.95058C181.539 9.92456 181.833 10.1297 181.864 10.4098L182.03 11.8976C182.061 12.1777 181.818 12.4256 181.487 12.4517C181.468 12.4532 181.449 12.4547 181.43 12.4547ZM181.762 15.4288C181.455 15.4288 181.193 15.2313 181.163 14.9681L180.997 13.4803C180.966 13.2002 181.209 12.9522 181.54 12.9262C181.87 12.9001 182.164 13.1053 182.196 13.3854L182.361 14.8732C182.392 15.1517 182.15 15.3997 181.819 15.4273C181.799 15.4288 181.78 15.4288 181.762 15.4288ZM182.093 18.4044C181.786 18.4044 181.524 18.2054 181.495 17.9421L181.329 16.4559C181.298 16.1757 181.541 15.9278 181.872 15.9002C182.201 15.8742 182.496 16.0793 182.527 16.3594L182.693 17.8472C182.724 18.1273 182.481 18.3753 182.15 18.4013C182.131 18.4028 182.112 18.4044 182.093 18.4044ZM182.425 21.3784C182.118 21.3784 181.855 21.181 181.826 20.9177L181.66 19.4299C181.629 19.1498 181.872 18.9018 182.203 18.8758C182.532 18.8498 182.827 19.0549 182.859 19.335L183.025 20.8213C183.056 21.1014 182.813 21.3493 182.482 21.3769C182.463 21.3784 182.444 21.3784 182.425 21.3784ZM182.756 24.354C182.449 24.354 182.187 24.1566 182.158 23.8918L181.992 22.404C181.961 22.1254 182.204 21.8759 182.535 21.8499C182.865 21.8238 183.159 22.029 183.19 22.3091L183.356 23.7969C183.387 24.077 183.144 24.3249 182.813 24.351C182.794 24.3525 182.775 24.354 182.756 24.354ZM183.088 27.3281C182.781 27.3281 182.519 27.1306 182.489 26.8673L182.324 25.3796C182.292 25.0994 182.535 24.8515 182.866 24.8255C183.197 24.7994 183.491 25.0045 183.522 25.2847L183.687 26.7709C183.719 27.051 183.476 27.299 183.145 27.3265C183.126 27.3265 183.107 27.3281 183.088 27.3281ZM183.419 30.3021C183.112 30.3021 182.85 30.1047 182.821 29.8414L182.655 28.3536C182.624 28.075 182.867 27.8255 183.198 27.7995C183.528 27.7735 183.822 27.9786 183.853 28.2587L184.019 29.7465C184.05 30.0266 183.807 30.2746 183.476 30.3006C183.457 30.3021 183.438 30.3021 183.419 30.3021ZM183.751 33.2777C183.444 33.2777 183.182 33.0803 183.152 32.817L182.987 31.3292C182.955 31.0491 183.198 30.8011 183.529 30.7751C183.858 30.7491 184.154 30.9542 184.185 31.2328L184.35 32.7206C184.382 33.0007 184.139 33.2486 183.808 33.2747C183.789 33.2762 183.77 33.2777 183.751 33.2777ZM184.082 36.2518C183.775 36.2518 183.513 36.0543 183.484 35.791L183.318 34.3033C183.287 34.0231 183.53 33.7752 183.861 33.7492C184.19 33.7231 184.485 33.9282 184.516 34.2084L184.682 35.6961C184.713 35.9747 184.47 36.2242 184.139 36.2502C184.12 36.2518 184.101 36.2518 184.082 36.2518ZM184.414 39.2274C184.107 39.2274 183.845 39.0299 183.815 38.7651L183.649 37.2788C183.618 36.9987 183.861 36.7508 184.192 36.7247C184.522 36.6972 184.817 36.9038 184.848 37.1824L185.014 38.6702C185.045 38.9503 184.802 39.1983 184.471 39.2243C184.452 39.2258 184.433 39.2274 184.414 39.2274ZM184.745 42.2014C184.438 42.2014 184.176 42.004 184.147 41.7407L183.981 40.2529C183.95 39.9728 184.193 39.7248 184.524 39.6988C184.856 39.6728 185.148 39.8779 185.179 40.158L185.345 41.6443C185.376 41.9244 185.133 42.1739 184.802 42.1999C184.783 42.2014 184.764 42.2014 184.745 42.2014ZM185.077 45.177C184.77 45.177 184.508 44.9796 184.478 44.7148L184.313 43.2285C184.282 42.9484 184.524 42.7004 184.855 42.6729C185.186 42.6484 185.48 42.8519 185.511 43.1321L185.677 44.6199C185.708 44.9 185.465 45.1479 185.134 45.1739C185.115 45.1755 185.096 45.177 185.077 45.177ZM185.408 48.1511C185.102 48.1511 184.839 47.9536 184.81 47.6903L184.644 46.2025C184.613 45.9224 184.856 45.6745 185.187 45.6484C185.516 45.6224 185.811 45.8275 185.842 46.1076L186.008 47.5939C186.039 47.874 185.796 48.122 185.466 48.1495C185.446 48.1511 185.427 48.1511 185.408 48.1511ZM185.74 51.1267C185.433 51.1267 185.171 50.9292 185.142 50.6644L184.976 49.1766C184.944 48.898 185.187 48.6501 185.518 48.6225C185.849 48.598 186.143 48.8016 186.174 49.0817L186.34 50.5695C186.371 50.8496 186.128 51.0976 185.797 51.1236C185.778 51.1251 185.759 51.1267 185.74 51.1267ZM186.071 54.1007C185.764 54.1007 185.502 53.9033 185.473 53.64L185.307 52.1522C185.276 51.8721 185.519 51.6241 185.85 51.5981C186.18 51.5721 186.474 51.7772 186.506 52.0573L186.671 53.5436C186.702 53.8237 186.459 54.0716 186.129 54.0992C186.109 54.1007 186.09 54.1007 186.071 54.1007ZM186.403 57.0748C186.096 57.0748 185.834 56.8773 185.805 56.614L185.639 55.1262C185.608 54.8477 185.851 54.5982 186.181 54.5721C186.514 54.5461 186.806 54.7512 186.837 55.0313L187.003 56.5191C187.034 56.7992 186.791 57.0472 186.46 57.0732C186.441 57.0748 186.422 57.0748 186.403 57.0748ZM186.734 60.0504C186.428 60.0504 186.165 59.8529 186.136 59.5896L185.97 58.1018C185.939 57.8217 186.182 57.5738 186.513 57.5477C186.842 57.5217 187.137 57.7268 187.169 58.0069L187.334 59.4932C187.365 59.7733 187.123 60.0213 186.792 60.0473C186.773 60.0488 186.754 60.0504 186.734 60.0504ZM187.066 63.0244C186.759 63.0244 186.497 62.827 186.468 62.5637L186.302 61.0759C186.271 60.7973 186.514 60.5478 186.845 60.5218C187.174 60.4973 187.469 60.7009 187.5 60.981L187.666 62.4688C187.697 62.7489 187.454 62.9969 187.123 63.0229C187.104 63.0244 187.085 63.0244 187.066 63.0244ZM187.397 66C187.091 66 186.828 65.8025 186.799 65.5393L186.633 64.0515C186.602 63.7714 186.845 63.5234 187.176 63.4974C187.506 63.4698 187.8 63.6765 187.831 63.955L187.997 65.4428C188.029 65.723 187.786 65.9709 187.455 65.9969C187.435 65.9985 187.416 66 187.397 66Z" fill="#5E606F"/>
<path fill-rule="evenodd" clip-rule="evenodd" d="M257.234 6.5051C257.214 6.5051 257.196 6.5051 257.176 6.50357C256.844 6.47754 256.602 6.22802 256.633 5.94788L256.799 4.46147C256.83 4.18133 257.123 3.9762 257.454 4.00223C257.786 4.02825 258.028 4.27624 257.997 4.55638L257.831 6.04433C257.802 6.30762 257.539 6.5051 257.234 6.5051ZM256.901 9.47946C256.882 9.47946 256.863 9.47946 256.844 9.47793C256.513 9.45191 256.271 9.20238 256.301 8.92378L256.466 7.43583C256.499 7.15569 256.792 6.95056 257.123 6.97659C257.454 7.00261 257.697 7.25213 257.666 7.53074L257.5 9.01869C257.471 9.28199 257.208 9.47946 256.901 9.47946ZM256.569 12.4554C256.551 12.4554 256.531 12.4538 256.513 12.4523C256.182 12.4263 255.939 12.1783 255.97 11.8981L256.135 10.4102C256.167 10.1301 256.459 9.92646 256.792 9.95248C257.121 9.97851 257.366 10.2265 257.333 10.5066L257.168 11.9931C257.139 12.2579 256.877 12.4554 256.569 12.4554ZM256.238 15.4297C256.22 15.4297 256.2 15.4282 256.18 15.4267C255.851 15.4006 255.606 15.1526 255.639 14.8725L255.804 13.3861C255.834 13.1059 256.129 12.9008 256.459 12.9268C256.79 12.9529 257.033 13.2009 257.002 13.481L256.837 14.9674C256.806 15.2322 256.546 15.4297 256.238 15.4297ZM255.907 18.4041C255.887 18.4041 255.869 18.4041 255.849 18.4025C255.519 18.375 255.275 18.127 255.306 17.8469L255.472 16.3604C255.503 16.0803 255.796 15.8752 256.128 15.9012C256.459 15.9272 256.701 16.1752 256.671 16.4554L256.506 17.9433C256.475 18.2066 256.213 18.4041 255.907 18.4041ZM255.576 21.3784C255.556 21.3784 255.538 21.3784 255.518 21.3769C255.186 21.3509 254.944 21.1014 254.975 20.8228L255.141 19.3348C255.172 19.0547 255.465 18.8495 255.796 18.8756C256.128 18.9016 256.37 19.1511 256.339 19.4297L256.173 20.9177C256.144 21.181 255.881 21.3784 255.576 21.3784ZM255.244 24.3543C255.224 24.3543 255.206 24.3528 255.186 24.3513C254.855 24.3252 254.613 24.0773 254.643 23.7971L254.81 22.3092C254.841 22.029 255.134 21.8239 255.465 21.8499C255.796 21.8775 256.039 22.1255 256.008 22.4056L255.842 23.892C255.813 24.1553 255.55 24.3543 255.244 24.3543ZM254.911 27.3287C254.893 27.3287 254.873 27.3272 254.855 27.3256C254.524 27.2996 254.281 27.0516 254.312 26.7715L254.479 25.2835C254.51 25.0049 254.801 24.7998 255.134 24.8258C255.465 24.8518 255.708 25.0998 255.677 25.38L255.51 26.8664C255.481 27.1312 255.219 27.3287 254.911 27.3287ZM254.58 30.3031C254.562 30.3031 254.542 30.3015 254.524 30.3C254.193 30.274 253.95 30.026 253.981 29.7458L254.146 28.2594C254.178 27.9793 254.472 27.7742 254.803 27.8002C255.132 27.8262 255.376 28.0742 255.344 28.3543L255.179 29.8423C255.15 30.1056 254.888 30.3031 254.58 30.3031ZM254.249 33.2774C254.231 33.2774 254.211 33.2774 254.193 33.2759C253.862 33.2483 253.619 33.0003 253.65 32.7217L253.814 31.2338C253.845 30.9537 254.138 30.7485 254.472 30.7745C254.801 30.8006 255.045 31.0486 255.013 31.3287L254.848 32.8166C254.819 33.0799 254.557 33.2774 254.249 33.2774ZM253.918 36.2518C253.898 36.2518 253.88 36.2518 253.86 36.2503C253.53 36.2242 253.286 35.9762 253.319 35.6961L253.483 34.2082C253.514 33.928 253.807 33.7229 254.138 33.7489C254.47 33.7765 254.712 34.0245 254.681 34.3031L254.517 35.791C254.486 36.0543 254.224 36.2518 253.918 36.2518ZM253.586 39.2277C253.567 39.2277 253.548 39.2261 253.528 39.2246C253.197 39.1986 252.955 38.9506 252.985 38.6705L253.152 37.1825C253.183 36.9024 253.478 36.6988 253.807 36.7233C254.138 36.7508 254.381 36.9988 254.35 37.279L254.184 38.7654C254.155 39.0302 253.892 39.2277 253.586 39.2277ZM253.255 42.202C253.235 42.202 253.217 42.2005 253.197 42.199C252.866 42.173 252.624 41.925 252.654 41.6448L252.821 40.1584C252.852 39.8783 253.145 39.6716 253.476 39.6992C253.807 39.7252 254.05 39.9732 254.019 40.2533L253.852 41.7397C253.824 42.0046 253.561 42.202 253.255 42.202ZM252.922 45.1764C252.904 45.1764 252.886 45.1764 252.866 45.1749C252.535 45.1473 252.292 44.8993 252.323 44.6192L252.49 43.1328C252.52 42.8526 252.814 42.6475 253.145 42.6735C253.476 42.6996 253.719 42.9475 253.688 43.2277L253.521 44.7156C253.492 44.9789 253.23 45.1764 252.922 45.1764ZM252.591 48.1508C252.573 48.1508 252.553 48.1508 252.535 48.1492C252.204 48.1232 251.961 47.8737 251.992 47.5951L252.157 46.1071C252.189 45.827 252.482 45.6219 252.814 45.6479C253.145 45.6739 253.387 45.9234 253.355 46.202L253.19 47.69C253.161 47.9533 252.899 48.1508 252.591 48.1508ZM252.26 51.1267C252.242 51.1267 252.222 51.1251 252.204 51.1236C251.872 51.0976 251.628 50.8496 251.661 50.5694L251.825 49.0815C251.858 48.8014 252.149 48.5962 252.482 48.6223C252.812 48.6498 253.056 48.8978 253.024 49.1779L252.859 50.6644C252.83 50.9277 252.567 51.1267 252.26 51.1267ZM251.928 54.101C251.91 54.101 251.89 54.0995 251.871 54.098C251.541 54.0719 251.297 53.8239 251.329 53.5438L251.494 52.0559C251.525 51.7773 251.82 51.5721 252.149 51.5981C252.481 51.6242 252.723 51.8722 252.692 52.1523L252.528 53.6387C252.497 53.9035 252.236 54.101 251.928 54.101ZM251.597 57.0754C251.577 57.0754 251.559 57.0739 251.539 57.0723C251.208 57.0463 250.966 56.7983 250.996 56.5182L251.163 55.0318C251.194 54.7516 251.487 54.545 251.818 54.5725C252.149 54.5985 252.392 54.8465 252.361 55.1267L252.195 56.6146C252.166 56.8779 251.903 57.0754 251.597 57.0754ZM251.266 60.0497C251.246 60.0497 251.228 60.0497 251.208 60.0482C250.877 60.0207 250.634 59.7727 250.665 59.4941L250.832 58.0061C250.862 57.726 251.156 57.5209 251.487 57.5469C251.818 57.5729 252.061 57.8209 252.03 58.101L251.863 59.589C251.834 59.8523 251.572 60.0497 251.266 60.0497ZM250.935 63.0241C250.915 63.0241 250.897 63.0241 250.877 63.0226C250.546 62.9966 250.303 62.7486 250.334 62.4684L250.5 60.9805C250.531 60.7003 250.824 60.4967 251.156 60.5212C251.487 60.5473 251.729 60.7968 251.699 61.0769L251.532 62.5633C251.503 62.8266 251.241 63.0241 250.935 63.0241ZM250.602 66C250.584 66 250.564 65.9985 250.546 65.9969C250.214 65.9709 249.972 65.7229 250.003 65.4428L250.169 63.9548C250.2 63.6747 250.493 63.4696 250.824 63.4956C251.156 63.5232 251.398 63.7711 251.367 64.0513L251.201 65.5377C251.172 65.8025 250.909 66 250.602 66Z" fill="#5E606F"/>
<path fill-rule="evenodd" clip-rule="evenodd" d="M250.562 70C250.325 70 250.104 69.8625 250.028 69.6472C249.931 69.3814 250.094 69.0943 250.389 69.0087L250.835 68.8789L250.879 68.4604C250.908 68.1809 251.183 67.9763 251.491 68.0022C251.8 68.0282 252.028 68.2771 251.997 68.5551L251.92 69.3066C251.899 69.5082 251.746 69.6793 251.533 69.7419L250.734 69.9756C250.676 69.9924 250.619 70 250.562 70Z" fill="#5E606F"/>
<path fill-rule="evenodd" clip-rule="evenodd" d="M247.917 71.5377C247.686 71.5377 247.473 71.3963 247.397 71.1723C247.306 70.8943 247.463 70.5972 247.75 70.5067L249.288 70.0254C249.574 69.9364 249.88 70.0889 249.974 70.3669C250.066 70.6449 249.908 70.942 249.622 71.0309L248.084 71.5123C248.028 71.5297 247.971 71.5377 247.917 71.5377ZM194.082 71.544C194.026 71.544 193.969 71.5361 193.913 71.5186L192.376 71.0325C192.09 70.942 191.934 70.6449 192.027 70.3669C192.12 70.0889 192.427 69.938 192.713 70.0285L194.251 70.5146C194.537 70.6036 194.693 70.9023 194.6 71.1803C194.525 71.4027 194.312 71.544 194.082 71.544ZM244.837 72.5004C244.608 72.5004 244.395 72.3574 244.32 72.1334C244.228 71.857 244.385 71.5583 244.672 71.4694L246.21 70.988C246.497 70.8991 246.803 71.0516 246.896 71.328C246.988 71.606 246.831 71.9046 246.544 71.9936L245.006 72.4749C244.95 72.4924 244.893 72.5004 244.837 72.5004ZM197.157 72.5162C197.101 72.5162 197.044 72.5083 196.988 72.4892L195.451 72.0047C195.165 71.9142 195.009 71.6155 195.102 71.3375C195.195 71.0611 195.502 70.9102 195.788 70.9992L197.325 71.4853C197.611 71.5758 197.768 71.8745 197.675 72.1509C197.6 72.3749 197.386 72.5162 197.157 72.5162ZM241.76 73.463C241.53 73.463 241.316 73.3201 241.242 73.0961C241.15 72.8181 241.308 72.521 241.593 72.432L243.132 71.9507C243.419 71.8602 243.725 72.0127 243.817 72.2907C243.91 72.5687 243.753 72.8657 243.466 72.9563L241.927 73.436C241.873 73.4535 241.815 73.463 241.76 73.463ZM200.231 73.4869C200.175 73.4869 200.119 73.4789 200.063 73.4614L198.525 72.9753C198.239 72.8848 198.083 72.5877 198.176 72.3097C198.269 72.0333 198.577 71.8808 198.863 71.9714L200.4 72.4575C200.686 72.548 200.842 72.8451 200.749 73.1231C200.674 73.3455 200.461 73.4869 200.231 73.4869ZM238.682 74.4241C238.453 74.4241 238.238 74.2811 238.165 74.0587C238.073 73.7807 238.23 73.4837 238.515 73.3931L240.055 72.9118C240.34 72.8228 240.648 72.9753 240.739 73.2533C240.833 73.5313 240.675 73.8284 240.389 73.9174L238.849 74.3987C238.794 74.4162 238.738 74.4241 238.682 74.4241ZM203.306 74.4591C203.25 74.4591 203.193 74.4511 203.137 74.4336L201.6 73.9475C201.314 73.857 201.158 73.5583 201.251 73.2819C201.344 73.0039 201.652 72.853 201.937 72.9436L203.475 73.4281C203.761 73.5186 203.917 73.8173 203.824 74.0937C203.749 74.3177 203.535 74.4591 203.306 74.4591ZM235.605 75.3868C235.375 75.3868 235.161 75.2438 235.087 75.0198C234.994 74.7434 235.151 74.4448 235.437 74.3558L236.977 73.8745C237.262 73.7839 237.57 73.938 237.662 74.2144C237.755 74.4924 237.598 74.7911 237.311 74.88L235.772 75.3614C235.716 75.3788 235.66 75.3868 235.605 75.3868ZM206.381 75.4313C206.325 75.4313 206.268 75.4217 206.212 75.4043L204.675 74.9182C204.389 74.8292 204.232 74.5305 204.326 74.2525C204.419 73.9761 204.726 73.8236 205.012 73.9142L206.549 74.4003C206.835 74.4908 206.992 74.7895 206.898 75.0659C206.824 75.2883 206.61 75.4313 206.381 75.4313ZM232.527 76.3479C232.298 76.3479 232.083 76.2065 232.009 75.9825C231.916 75.7045 232.073 75.4074 232.36 75.3169L233.899 74.8371C234.184 74.7482 234.492 74.8991 234.584 75.1771C234.676 75.4551 234.519 75.7522 234.234 75.8427L232.694 76.3225C232.638 76.3399 232.583 76.3479 232.527 76.3479ZM209.455 76.4019C209.399 76.4019 209.343 76.3939 209.286 76.3765L207.749 75.8904C207.463 75.7998 207.307 75.5012 207.4 75.2248C207.493 74.9468 207.801 74.7958 208.087 74.8864L209.624 75.3725C209.91 75.4615 210.066 75.7601 209.973 76.0381C209.898 76.2605 209.685 76.4019 209.455 76.4019ZM229.449 77.3105C229.218 77.3105 229.005 77.1676 228.932 76.9436C228.838 76.6672 228.996 76.3685 229.282 76.2796L230.822 75.7982C231.107 75.7093 231.415 75.8618 231.506 76.1398C231.598 76.4178 231.441 76.7148 231.156 76.8038L229.616 77.2851C229.561 77.3026 229.505 77.3105 229.449 77.3105ZM212.53 77.3741C212.474 77.3741 212.417 77.3661 212.361 77.3471L210.825 76.8626C210.538 76.772 210.381 76.4734 210.474 76.1954C210.567 75.919 210.875 75.7665 211.162 75.857L212.698 76.3431C212.985 76.4337 213.141 76.7323 213.047 77.0087C212.974 77.2327 212.759 77.3741 212.53 77.3741ZM226.372 78.2732C226.141 78.2732 225.928 78.1303 225.852 77.9063C225.761 77.6283 225.918 77.3312 226.205 77.2422L227.743 76.7609C228.029 76.6719 228.337 76.8244 228.429 77.1009C228.521 77.3789 228.363 77.6759 228.077 77.7665L226.539 78.2478C226.483 78.2653 226.427 78.2732 226.372 78.2732ZM215.604 78.3447C215.548 78.3447 215.493 78.3368 215.435 78.3193L213.899 77.8332C213.612 77.7426 213.457 77.4456 213.55 77.1676C213.642 76.8896 213.95 76.7387 214.236 76.8292L215.773 77.3153C216.059 77.4059 216.215 77.7029 216.122 77.9809C216.048 78.2033 215.833 78.3447 215.604 78.3447ZM223.294 79.2343C223.063 79.2343 222.85 79.0929 222.775 78.8689C222.683 78.5909 222.84 78.2939 223.127 78.2033L224.665 77.722C224.952 77.633 225.258 77.7855 225.351 78.0635C225.443 78.3415 225.286 78.6386 224.999 78.7291L223.461 79.2089C223.405 79.2264 223.35 79.2343 223.294 79.2343ZM218.68 79.3169C218.623 79.3169 218.567 79.309 218.511 79.2915L216.973 78.8054C216.687 78.7148 216.531 78.4162 216.624 78.1398C216.718 77.8618 217.024 77.7109 217.311 77.7998L218.849 78.2859C219.134 78.3765 219.291 78.6751 219.198 78.9515C219.122 79.1755 218.909 79.3169 218.68 79.3169ZM220.844 80C220.786 80 220.729 79.9921 220.675 79.9746L220.048 79.776C219.761 79.6871 219.605 79.3884 219.699 79.1104C219.792 78.834 220.098 78.6815 220.385 78.772L220.844 78.9166L221.587 78.6847C221.874 78.5957 222.18 78.7482 222.274 79.0262C222.365 79.3026 222.208 79.6013 221.921 79.6902L221.011 79.9746C220.957 79.9921 220.899 80 220.844 80Z" fill="#5E606F"/>
<path fill-rule="evenodd" clip-rule="evenodd" d="M194.902 8.53388C194.408 8.53388 194.007 8.30534 194.006 8.02465L194 6.5123C193.999 6.23007 194.399 6.00153 194.895 6C194.895 6 194.896 6 194.897 6C195.391 6 195.792 6.22854 195.794 6.50923L195.799 8.02311C195.8 8.3038 195.4 8.53235 194.904 8.53388C194.904 8.53388 194.903 8.53388 194.902 8.53388ZM194.914 11.5586C194.419 11.5586 194.018 11.3316 194.017 11.0509L194.011 9.537C194.01 9.25631 194.411 9.02624 194.906 9.02624C194.907 9.02624 194.907 9.02624 194.908 9.02624C195.403 9.02624 195.804 9.25478 195.805 9.53547L195.81 11.0478C195.811 11.33 195.411 11.5586 194.915 11.5586C194.915 11.5586 194.914 11.5586 194.914 11.5586ZM194.925 14.5848C194.43 14.5848 194.029 14.3578 194.028 14.0756L194.022 12.5632C194.021 12.281 194.422 12.0525 194.917 12.0525C194.918 12.0525 194.919 12.0525 194.919 12.0525C195.414 12.0525 195.815 12.2795 195.816 12.5617L195.821 14.0741C195.823 14.3563 195.422 14.5848 194.926 14.5848C194.926 14.5848 194.925 14.5848 194.925 14.5848ZM194.936 17.6111C194.442 17.6111 194.04 17.384 194.039 17.1018L194.033 15.5895C194.033 15.3072 194.433 15.0787 194.928 15.0787C194.929 15.0787 194.93 15.0787 194.93 15.0787C195.425 15.0787 195.826 15.3057 195.827 15.5864L195.832 17.1003C195.834 17.3825 195.433 17.6111 194.938 17.6111C194.937 17.6111 194.936 17.6111 194.936 17.6111ZM194.947 20.6373C194.453 20.6373 194.051 20.4088 194.05 20.1281L194.045 18.6157C194.044 18.3335 194.444 18.1049 194.939 18.1034C194.94 18.1034 194.941 18.1034 194.942 18.1034C195.436 18.1034 195.837 18.332 195.838 18.6126L195.844 20.1265C195.845 20.4072 195.444 20.6358 194.949 20.6373C194.948 20.6373 194.948 20.6373 194.947 20.6373ZM194.958 23.6635C194.464 23.6635 194.062 23.435 194.061 23.1543L194.056 21.6419C194.055 21.3597 194.456 21.1312 194.951 21.1296C194.951 21.1296 194.952 21.1296 194.953 21.1296C195.447 21.1296 195.848 21.3582 195.849 21.6389L195.855 23.1512C195.856 23.4335 195.455 23.662 194.96 23.6635C194.959 23.6635 194.959 23.6635 194.958 23.6635ZM194.969 26.6882C194.475 26.6882 194.074 26.4612 194.073 26.1805L194.067 24.6666C194.066 24.386 194.467 24.1559 194.962 24.1559C194.963 24.1559 194.963 24.1559 194.964 24.1559C195.458 24.1559 195.859 24.3829 195.861 24.6651L195.866 26.1775C195.867 26.4597 195.466 26.6882 194.971 26.6882C194.971 26.6882 194.97 26.6882 194.969 26.6882ZM194.98 29.7145C194.486 29.7145 194.085 29.4875 194.084 29.2052L194.078 27.6929C194.077 27.4107 194.478 27.1821 194.973 27.1821C194.974 27.1821 194.975 27.1821 194.975 27.1821C195.469 27.1821 195.871 27.4091 195.872 27.6914L195.877 29.2037C195.878 29.4859 195.478 29.7145 194.982 29.7145C194.982 29.7145 194.981 29.7145 194.98 29.7145ZM194.992 32.7407C194.497 32.7407 194.096 32.5137 194.095 32.2315L194.089 30.7191C194.088 30.4369 194.489 30.2084 194.984 30.2084C194.985 30.2084 194.986 30.2084 194.986 30.2084C195.481 30.2084 195.882 30.4354 195.883 30.7161L195.888 32.2299C195.89 32.5122 195.489 32.7407 194.994 32.7407C194.993 32.7407 194.992 32.7407 194.992 32.7407ZM195.003 35.7669C194.508 35.7669 194.107 35.5384 194.106 35.2577L194.1 33.7454C194.1 33.4631 194.5 33.2346 194.995 33.2331C194.996 33.2331 194.997 33.2331 194.997 33.2331C195.492 33.2331 195.893 33.4616 195.894 33.7423L195.9 35.2546C195.901 35.5369 195.5 35.7654 195.005 35.7669C195.004 35.7669 195.003 35.7669 195.003 35.7669ZM195.014 38.7932C194.519 38.7932 194.118 38.5646 194.117 38.2839L194.112 36.7701C194.111 36.4894 194.511 36.2608 195.007 36.2593C195.007 36.2593 195.008 36.2593 195.008 36.2593C195.503 36.2593 195.904 36.4878 195.905 36.7685L195.911 38.2809C195.912 38.5631 195.511 38.7916 195.016 38.7932C195.015 38.7932 195.015 38.7932 195.014 38.7932ZM195.025 41.8179C194.531 41.8179 194.129 41.5909 194.128 41.3102L194.123 39.7963C194.122 39.5156 194.522 39.2855 195.018 39.2855C195.018 39.2855 195.019 39.2855 195.02 39.2855C195.514 39.2855 195.915 39.5125 195.916 39.7948L195.922 41.3071C195.923 41.5893 195.522 41.8179 195.027 41.8179C195.027 41.8179 195.026 41.8179 195.025 41.8179ZM195.036 44.8441C194.542 44.8441 194.141 44.6171 194.139 44.3349L194.134 42.8225C194.133 42.5403 194.534 42.3118 195.029 42.3118C195.03 42.3118 195.03 42.3118 195.031 42.3118C195.525 42.3118 195.927 42.5388 195.927 42.821L195.933 44.3334C195.934 44.6156 195.534 44.8441 195.038 44.8441C195.038 44.8441 195.037 44.8441 195.036 44.8441ZM195.048 47.8703C194.553 47.8703 194.152 47.6433 194.151 47.3611L194.145 45.8488C194.144 45.5665 194.545 45.338 195.04 45.338C195.041 45.338 195.041 45.338 195.042 45.338C195.536 45.338 195.938 45.565 195.939 45.8457L195.944 47.3596C195.945 47.6403 195.545 47.8703 195.049 47.8703C195.049 47.8703 195.048 47.8703 195.048 47.8703ZM195.059 50.8966C194.564 50.8966 194.163 50.668 194.162 50.3874L194.156 48.875C194.155 48.5928 194.556 48.3642 195.051 48.3627C195.052 48.3627 195.052 48.3627 195.053 48.3627C195.548 48.3627 195.949 48.5912 195.95 48.8719L195.955 50.3858C195.957 50.6665 195.556 50.8951 195.061 50.8966C195.06 50.8966 195.059 50.8966 195.059 50.8966ZM195.07 53.9228C194.575 53.9228 194.174 53.6943 194.173 53.4136L194.167 51.8997C194.166 51.619 194.567 51.3905 195.062 51.3889C195.063 51.3889 195.064 51.3889 195.064 51.3889C195.559 51.3889 195.96 51.6175 195.961 51.8982L195.967 53.4105C195.968 53.6928 195.567 53.9213 195.072 53.9228C195.071 53.9228 195.071 53.9228 195.07 53.9228ZM195.081 56.9475C194.587 56.9475 194.185 56.7205 194.184 56.4398L194.179 54.9259C194.178 54.6437 194.578 54.4152 195.073 54.4152C195.074 54.4152 195.075 54.4152 195.075 54.4152C195.57 54.4152 195.971 54.6422 195.972 54.9244L195.978 56.4368C195.979 56.719 195.578 56.9475 195.083 56.9475C195.082 56.9475 195.082 56.9475 195.081 56.9475ZM195.092 59.9738C194.598 59.9738 194.196 59.7468 194.196 59.4645L194.19 57.9522C194.189 57.67 194.589 57.4414 195.085 57.4414C195.085 57.4414 195.086 57.4414 195.087 57.4414C195.581 57.4414 195.982 57.6684 195.983 57.9491L195.989 59.463C195.99 59.7452 195.589 59.9738 195.094 59.9738C195.093 59.9738 195.093 59.9738 195.092 59.9738ZM195.103 63C194.609 63 194.208 62.773 194.207 62.4908L194.201 60.9784C194.2 60.6962 194.601 60.4677 195.096 60.4661C195.096 60.4661 195.097 60.4661 195.098 60.4661C195.592 60.4661 195.994 60.6947 195.995 60.9754L196 62.4892C196.001 62.7699 195.601 62.9985 195.105 63C195.105 63 195.104 63 195.103 63Z" fill="#5E606F"/>
<path fill-rule="evenodd" clip-rule="evenodd" d="M195.416 66C195.355 66 195.294 65.9924 195.233 65.9757L194.404 65.7403C194.164 65.672 194.002 65.4791 194.002 65.262L194 64.5057C193.999 64.2278 194.26 64.0015 194.583 64C194.583 64 194.584 64 194.584 64C194.906 64 195.168 64.2263 195.168 64.5042L195.169 64.8945L195.598 65.0159C195.904 65.1025 196.071 65.388 195.971 65.6538C195.89 65.8664 195.661 66 195.416 66Z" fill="#5E606F"/>
<path fill-rule="evenodd" clip-rule="evenodd" d="M198.081 65.4883C198.026 65.4883 197.97 65.4807 197.915 65.4641L196.365 64.9816C196.087 64.8938 195.935 64.6095 196.027 64.3463C196.118 64.0831 196.418 63.9379 196.696 64.0256L198.246 64.5081C198.525 64.5943 198.676 64.8787 198.585 65.1419C198.511 65.3537 198.304 65.4883 198.081 65.4883ZM239.92 65.4883C239.696 65.4883 239.489 65.3537 239.415 65.1419C239.324 64.8787 239.476 64.5943 239.754 64.5081L241.303 64.0256C241.583 63.9379 241.883 64.0831 241.974 64.3463C242.065 64.6095 241.913 64.8938 241.635 64.9816L240.086 65.4641C240.031 65.4807 239.975 65.4883 239.92 65.4883ZM201.18 66.4533C201.125 66.4533 201.069 66.4458 201.014 66.4276L199.464 65.9451C199.186 65.8589 199.034 65.5745 199.126 65.3113C199.217 65.0466 199.517 64.9029 199.796 64.9906L201.345 65.4732C201.624 65.5594 201.775 65.8437 201.684 66.1069C201.61 66.3187 201.403 66.4533 201.18 66.4533ZM236.82 66.4533C236.598 66.4533 236.389 66.3187 236.317 66.1069C236.225 65.8437 236.376 65.5594 236.656 65.4732L238.205 64.9906C238.483 64.9029 238.783 65.0466 238.874 65.3113C238.965 65.5745 238.815 65.8589 238.536 65.9451L236.986 66.4276C236.932 66.4458 236.876 66.4533 236.82 66.4533ZM204.279 67.4184C204.224 67.4184 204.168 67.4093 204.113 67.3926L202.564 66.9101C202.285 66.8239 202.134 66.5395 202.225 66.2763C202.316 66.0116 202.617 65.8679 202.895 65.9557L204.444 66.4367C204.723 66.5244 204.874 66.8088 204.783 67.072C204.71 67.2837 204.502 67.4184 204.279 67.4184ZM233.722 67.4184C233.499 67.4184 233.291 67.2837 233.218 67.072C233.125 66.8088 233.277 66.5244 233.556 66.4367L235.106 65.9557C235.384 65.8679 235.684 66.0116 235.775 66.2763C235.867 66.5395 235.716 66.8239 235.436 66.9101L233.887 67.3926C233.832 67.4093 233.777 67.4184 233.722 67.4184ZM207.378 68.3834C207.323 68.3834 207.267 68.3743 207.212 68.3577L205.663 67.8752C205.385 67.7889 205.233 67.5046 205.324 67.2399C205.416 66.9767 205.715 66.833 205.994 66.9192L207.544 67.4017C207.822 67.4879 207.974 67.7723 207.882 68.037C207.809 68.2488 207.601 68.3834 207.378 68.3834ZM230.623 68.3834C230.399 68.3834 230.192 68.2488 230.118 68.037C230.026 67.7723 230.178 67.4879 230.457 67.4017L232.007 66.9192C232.286 66.833 232.584 66.9767 232.675 67.2399C232.768 67.5046 232.616 67.7889 232.337 67.8752L230.787 68.3577C230.733 68.3743 230.677 68.3834 230.623 68.3834ZM210.478 69.3469C210.422 69.3469 210.366 69.3393 210.312 69.3227L208.762 68.8402C208.484 68.754 208.332 68.4696 208.423 68.2049C208.515 67.9417 208.815 67.7965 209.093 67.8842L210.642 68.3668C210.922 68.453 211.073 68.7373 210.981 69.002C210.907 69.2138 210.7 69.3469 210.478 69.3469ZM227.523 69.3469C227.3 69.3469 227.092 69.2138 227.019 69.002C226.928 68.7373 227.08 68.453 227.357 68.3668L228.907 67.8842C229.185 67.798 229.485 67.9417 229.577 68.2049C229.668 68.4696 229.517 68.754 229.239 68.8402L227.689 69.3227C227.633 69.3393 227.578 69.3469 227.523 69.3469ZM213.576 70.3119C213.522 70.3119 213.466 70.3044 213.411 70.2862L211.862 69.8052C211.582 69.7175 211.431 69.4331 211.523 69.1699C211.614 68.9067 211.914 68.7615 212.192 68.8493L213.742 69.3318C214.021 69.418 214.173 69.7024 214.08 69.9656C214.007 70.1773 213.799 70.3119 213.576 70.3119ZM224.424 70.3119C224.2 70.3119 223.993 70.1773 223.92 69.9656C223.829 69.7024 223.98 69.418 224.258 69.3318L225.808 68.8493C226.085 68.7615 226.387 68.9067 226.478 69.1699C226.569 69.4331 226.417 69.7175 226.14 69.8052L224.59 70.2862C224.534 70.3044 224.478 70.3119 224.424 70.3119ZM221.324 71.277C221.101 71.277 220.894 71.1424 220.82 70.9306C220.729 70.6674 220.881 70.383 221.158 70.2968L222.708 69.8143C222.987 69.7266 223.288 69.8703 223.379 70.135C223.469 70.3982 223.318 70.6825 223.04 70.7703L221.49 71.2513C221.435 71.2694 221.379 71.277 221.324 71.277ZM216.675 71.277C216.621 71.277 216.565 71.2694 216.509 71.2513L214.961 70.7703C214.682 70.6825 214.53 70.3982 214.621 70.135C214.714 69.8703 215.012 69.7266 215.292 69.8143L216.841 70.2968C217.119 70.383 217.271 70.6674 217.18 70.9306C217.106 71.1424 216.899 71.277 216.675 71.277ZM219.002 72C218.946 72 218.886 71.9909 218.833 71.9743L218.059 71.7338C217.781 71.6476 217.63 71.3632 217.721 71.1C217.813 70.8353 218.112 70.6916 218.391 70.7778L219.001 70.9684L219.61 70.7778C219.888 70.6916 220.188 70.8353 220.279 71.1C220.37 71.3632 220.218 71.6476 219.941 71.7338L219.168 71.9743C219.114 71.9909 219.058 72 219.002 72Z" fill="#5E606F"/>
<path fill-rule="evenodd" clip-rule="evenodd" d="M244.584 66C244.338 66 244.11 65.8664 244.029 65.6538C243.929 65.388 244.096 65.1025 244.401 65.0159L244.83 64.8945L244.832 64.5042C244.832 64.2263 245.094 64 245.415 64C245.417 64 245.417 64 245.417 64C245.74 64.0015 246 64.2278 246 64.5057L245.998 65.262C245.996 65.4791 245.835 65.672 245.596 65.7403L244.767 65.9757C244.705 65.9924 244.644 66 244.584 66Z" fill="#5E606F"/>
<path fill-rule="evenodd" clip-rule="evenodd" d="M245.099 8.53388H245.096C244.602 8.53235 244.2 8.3038 244.2 8.02311L244.205 6.50923C244.208 6.22854 244.61 6 245.104 6C245.104 6 245.104 6 245.107 6C245.601 6.00153 246.003 6.23007 246 6.5123L245.995 8.02465C245.995 8.30534 245.592 8.53388 245.099 8.53388ZM245.088 11.5586H245.085C244.588 11.5586 244.189 11.33 244.189 11.0478L244.194 9.53547C244.197 9.25478 244.599 9.02624 245.093 9.02624C245.093 9.02624 245.093 9.02624 245.096 9.02624C245.59 9.02624 245.992 9.25631 245.989 9.537L245.984 11.0509C245.984 11.3316 245.582 11.5586 245.088 11.5586ZM245.077 14.5848C245.074 14.5848 245.074 14.5848 245.074 14.5848C244.578 14.5848 244.178 14.3563 244.178 14.0741L244.184 12.5617C244.186 12.2795 244.586 12.0525 245.082 12.0525C245.579 12.0525 245.981 12.281 245.978 12.5632L245.973 14.0771C245.973 14.3578 245.571 14.5848 245.077 14.5848ZM245.063 17.6111C244.567 17.6111 244.167 17.3825 244.167 17.1003L244.173 15.5864C244.173 15.3057 244.575 15.0787 245.072 15.0787C245.568 15.0787 245.968 15.3072 245.968 15.5895L245.962 17.1018C245.962 17.384 245.56 17.6111 245.063 17.6111ZM245.053 20.6373C244.556 20.6358 244.154 20.4072 244.157 20.1265L244.162 18.6126C244.162 18.332 244.564 18.1034 245.058 18.1034C245.061 18.1034 245.061 18.1034 245.061 18.1034C245.557 18.1049 245.957 18.3335 245.957 18.6157L245.951 20.1281C245.949 20.4088 245.549 20.6373 245.053 20.6373ZM245.042 23.6635C244.545 23.662 244.143 23.4335 244.146 23.1512L244.151 21.6389C244.151 21.3582 244.553 21.1296 245.047 21.1296C245.05 21.1296 245.05 21.1296 245.05 21.1296C245.547 21.1312 245.946 21.3597 245.946 21.6419L245.941 23.1543C245.938 23.435 245.536 23.6635 245.042 23.6635ZM245.031 26.6882C245.031 26.6882 245.031 26.6882 245.028 26.6882C244.534 26.6882 244.132 26.4597 244.135 26.1775L244.14 24.6651C244.14 24.3829 244.543 24.1559 245.036 24.1559H245.039C245.533 24.1574 245.935 24.386 245.935 24.6666L245.93 26.1805C245.927 26.4612 245.525 26.6882 245.031 26.6882ZM245.02 29.7145C245.02 29.7145 245.02 29.7145 245.018 29.7145C244.524 29.7145 244.121 29.4859 244.121 29.2037L244.13 27.6914C244.13 27.4091 244.532 27.1821 245.026 27.1821C245.026 27.1821 245.026 27.1821 245.028 27.1821C245.522 27.1821 245.924 27.4107 245.922 27.6929L245.916 29.2052C245.916 29.4875 245.514 29.7145 245.02 29.7145ZM245.009 32.7407H245.007C244.51 32.7407 244.111 32.5122 244.111 32.2299L244.116 30.7161C244.119 30.4354 244.521 30.2084 245.015 30.2084C245.015 30.2084 245.015 30.2084 245.018 30.2084C245.511 30.2084 245.914 30.4369 245.911 30.7191L245.906 32.2315C245.906 32.5137 245.503 32.7407 245.009 32.7407ZM244.999 35.7669C244.996 35.7669 244.996 35.7669 244.996 35.7669C244.499 35.7654 244.1 35.5369 244.1 35.2562L244.105 33.7423C244.108 33.4616 244.507 33.2331 245.004 33.2331C245.501 33.2346 245.903 33.4631 245.9 33.7454L245.895 35.2577C245.895 35.5384 245.493 35.7669 244.999 35.7669ZM244.985 38.7932C244.489 38.7916 244.089 38.5631 244.089 38.2809L244.094 36.7685C244.094 36.4878 244.497 36.2593 244.993 36.2593C245.49 36.2608 245.889 36.4894 245.889 36.7701L245.884 38.2839C245.884 38.5646 245.482 38.7932 244.985 38.7932ZM244.974 41.8179C244.478 41.8179 244.076 41.5893 244.078 41.3071L244.084 39.7948C244.084 39.5125 244.486 39.2855 244.98 39.2855C244.982 39.2855 244.982 39.2855 244.982 39.2855C245.479 39.2855 245.879 39.5156 245.879 39.7963L245.873 41.3102C245.87 41.5909 245.471 41.8179 244.974 41.8179ZM244.964 44.8441C244.467 44.8441 244.065 44.6156 244.067 44.3334L244.073 42.821C244.073 42.5388 244.475 42.3118 244.969 42.3118C244.972 42.3118 244.972 42.3118 244.972 42.3118C245.468 42.3118 245.868 42.5403 245.868 42.8225L245.862 44.3349C245.86 44.6171 245.46 44.8441 244.964 44.8441ZM244.953 47.8703C244.953 47.8703 244.953 47.8703 244.95 47.8703C244.456 47.8703 244.054 47.6403 244.057 47.3596L244.062 45.8457C244.062 45.565 244.464 45.338 244.958 45.338H244.961C245.455 45.338 245.857 45.5665 245.857 45.8488L245.852 47.3611C245.849 47.6433 245.447 47.8703 244.953 47.8703ZM244.942 50.8966C244.942 50.8966 244.942 50.8966 244.939 50.8966C244.445 50.8951 244.043 50.6665 244.043 50.3858L244.051 48.8719C244.051 48.5912 244.453 48.3627 244.947 48.3627C244.947 48.3627 244.947 48.3627 244.95 48.3627C245.444 48.3642 245.846 48.5928 245.846 48.875L245.838 50.3874C245.838 50.668 245.436 50.8966 244.942 50.8966ZM244.931 53.9228H244.928C244.432 53.9213 244.032 53.6928 244.032 53.4105L244.038 51.8982C244.04 51.6175 244.443 51.3889 244.937 51.3889C244.937 51.3889 244.937 51.3889 244.939 51.3889C245.433 51.3905 245.835 51.619 245.833 51.8997L245.827 53.4136C245.827 53.6943 245.425 53.9228 244.931 53.9228ZM244.92 56.9475C244.918 56.9475 244.918 56.9475 244.918 56.9475C244.421 56.9475 244.022 56.719 244.022 56.4368L244.027 54.9244C244.03 54.6422 244.429 54.4152 244.926 54.4152C245.422 54.4152 245.825 54.6453 245.822 54.9259L245.816 56.4398C245.816 56.7205 245.414 56.9475 244.92 56.9475ZM244.91 59.9738C244.907 59.9738 244.907 59.9738 244.907 59.9738C244.41 59.9738 244.011 59.7452 244.011 59.463L244.016 57.9491C244.019 57.6684 244.418 57.4414 244.915 57.4414C245.412 57.4414 245.811 57.67 245.811 57.9522L245.806 59.4645C245.806 59.7468 245.403 59.9738 244.91 59.9738ZM244.896 63C244.399 62.9985 244 62.7699 244 62.4892L244.005 60.9754C244.005 60.6947 244.408 60.4661 244.901 60.4661C244.904 60.4661 244.904 60.4661 244.904 60.4661C245.401 60.4677 245.8 60.6962 245.8 60.9784L245.795 62.4908C245.792 62.773 245.393 63 244.896 63Z" fill="#5E606F"/>
<path fill-rule="evenodd" clip-rule="evenodd" d="M186 5C184.346 5 183 6.34586 183 8C183 9.65414 184.346 11 186 11C187.654 11 189 9.65414 189 8C189 6.34586 187.654 5 186 5ZM186 12C183.794 12 182 10.2045 182 8C182 5.79398 183.794 4 186 4C188.206 4 190 5.79398 190 8C190 10.2045 188.206 12 186 12Z" fill="#5E606F"/>
<path fill-rule="evenodd" clip-rule="evenodd" d="M180.652 4C180.36 4 180.11 3.77702 180.082 3.478L180.003 2.6293C179.987 2.4651 180.043 2.30262 180.155 2.18162C180.268 2.06063 180.427 1.99668 180.59 2.00013L181.445 2.02606C181.761 2.03643 182.009 2.30089 182 2.61893C181.99 2.93525 181.73 3.18588 181.41 3.17551L181.203 3.16859L181.222 3.37083C181.252 3.68714 181.021 3.96716 180.706 3.99654C180.688 3.99827 180.67 4 180.652 4Z" fill="#5E606F"/>
<path fill-rule="evenodd" clip-rule="evenodd" d="M251.796 3.79688C251.495 3.79688 251.247 3.41175 251.244 2.93165C251.24 2.44891 251.483 2.05059 251.789 2.04267C252.428 2.02948 252.98 2.01629 253.434 2.00046C253.742 1.98464 253.993 2.37505 254 2.86042C254.005 3.3458 253.764 3.74676 253.458 3.75467C253 3.7705 252.446 3.78369 251.804 3.79688C251.801 3.79688 251.799 3.79688 251.796 3.79688ZM184.203 3.81007C184.2 3.81007 184.197 3.81007 184.194 3.81007C183.496 3.79424 182.939 3.77578 182.537 3.75731C182.232 3.74412 181.991 3.34052 182 2.85515C182.009 2.37241 182.262 1.99255 182.569 2.0031C182.966 2.02157 183.518 2.04003 184.211 2.05586C184.516 2.06377 184.76 2.4621 184.756 2.94747C184.751 3.42757 184.504 3.81007 184.203 3.81007ZM248.497 3.85228C248.195 3.85228 247.948 3.4645 247.945 2.98177C247.943 2.49903 248.188 2.10334 248.494 2.09807C249.076 2.09015 249.627 2.08224 250.142 2.07433C250.45 2.06114 250.698 2.45946 250.7 2.9422C250.703 3.42757 250.458 3.82326 250.152 3.82854C249.637 3.83645 249.086 3.84436 248.502 3.85228C248.501 3.85228 248.499 3.85228 248.497 3.85228ZM187.501 3.87074C187.499 3.87074 187.497 3.87074 187.496 3.87074C186.907 3.86283 186.355 3.85228 185.846 3.84436C185.54 3.83909 185.295 3.4434 185.299 2.95803C185.302 2.47793 185.549 2.09015 185.852 2.09015C185.854 2.09015 185.856 2.09015 185.858 2.09015C186.367 2.09807 186.917 2.10862 187.505 2.11653C187.811 2.11917 188.056 2.5175 188.054 3.00023C188.051 3.48297 187.804 3.87074 187.501 3.87074ZM245.2 3.88921C244.896 3.88921 244.648 3.50144 244.646 3.0187C244.645 2.53332 244.891 2.13764 245.197 2.135C245.766 2.12972 246.317 2.12445 246.846 2.11917C246.847 2.11917 246.847 2.11917 246.849 2.11917C247.153 2.11917 247.399 2.50694 247.403 2.98968C247.404 3.47242 247.158 3.8681 246.854 3.87338C246.323 3.87866 245.773 3.88393 245.204 3.88921C245.202 3.88921 245.2 3.88921 245.2 3.88921ZM190.798 3.90767C190.797 3.90767 190.796 3.90767 190.795 3.90767C190.223 3.9024 189.673 3.89712 189.145 3.88921C188.84 3.88657 188.594 3.49088 188.596 3.00815C188.599 2.52277 188.844 2.135 189.153 2.135C189.68 2.14291 190.23 2.14819 190.802 2.15346C191.107 2.1561 191.353 2.55179 191.351 3.03716C191.349 3.5199 191.102 3.90767 190.798 3.90767ZM241.902 3.91822C241.597 3.91822 241.351 3.52781 241.35 3.04508C241.348 2.56234 241.594 2.16665 241.9 2.16402L243.549 2.15083C243.549 2.15083 243.55 2.15083 243.552 2.15083C243.855 2.15083 244.103 2.54124 244.104 3.02397C244.106 3.50671 243.86 3.9024 243.554 3.90504L241.905 3.91822C241.903 3.91822 241.903 3.91822 241.902 3.91822ZM194.096 3.93405C194.095 3.93405 194.094 3.93405 194.093 3.93405C193.529 3.93141 192.979 3.92614 192.444 3.9235C192.138 3.92086 191.892 3.52518 191.894 3.0398C191.895 2.55706 192.143 2.16929 192.447 2.16929C192.448 2.16929 192.449 2.16929 192.45 2.16929C192.984 2.17193 193.534 2.1772 194.098 2.17984C194.403 2.18248 194.65 2.57817 194.649 3.0609C194.647 3.54364 194.4 3.93405 194.096 3.93405ZM238.605 3.93933C238.301 3.93933 238.053 3.54892 238.051 3.06618C238.051 2.58344 238.297 2.18776 238.603 2.18776L240.252 2.1772H240.253C240.558 2.1772 240.806 2.56498 240.806 3.05035C240.807 3.53309 240.561 3.92878 240.255 3.92878L238.607 3.93933H238.605ZM197.393 3.95516C197.392 3.95516 197.392 3.95516 197.391 3.95516L195.742 3.94724C195.437 3.9446 195.19 3.54892 195.191 3.06618C195.192 2.58344 195.44 2.19039 195.744 2.19039C195.745 2.19039 195.746 2.19039 195.746 2.19039L197.395 2.20095C197.7 2.20358 197.947 2.59663 197.946 3.08201C197.945 3.56474 197.697 3.95516 197.393 3.95516ZM235.308 3.95779C235.002 3.95779 234.756 3.56738 234.754 3.08465C234.754 2.59927 235 2.20622 235.306 2.20358L236.955 2.19567C236.955 2.19567 236.955 2.19567 236.956 2.19567C237.261 2.19567 237.509 2.58608 237.509 3.06882C237.51 3.55419 237.264 3.94724 236.958 3.94988L235.31 3.95779C235.308 3.95779 235.308 3.95779 235.308 3.95779ZM200.69 3.97098C200.689 3.97098 200.689 3.97098 200.688 3.97098L199.04 3.96307C198.734 3.96307 198.487 3.57002 198.488 3.08465C198.489 2.60191 198.737 2.2115 199.041 2.2115C199.042 2.2115 199.042 2.2115 199.043 2.2115L200.691 2.21677C200.997 2.21941 201.244 2.61246 201.243 3.09784C201.242 3.58057 200.995 3.97098 200.69 3.97098ZM232.009 3.97362C231.705 3.97362 231.457 3.58057 231.457 3.09784C231.456 2.61246 231.703 2.21941 232.009 2.21941L233.658 2.2115C233.658 2.2115 233.658 2.2115 233.66 2.2115C233.964 2.2115 234.21 2.60191 234.212 3.08728C234.212 3.57002 233.966 3.96571 233.66 3.96571L232.011 3.97362C232.011 3.97362 232.011 3.97362 232.009 3.97362ZM203.987 3.98417C203.986 3.98417 203.986 3.98417 203.986 3.98417L202.337 3.9789C202.032 3.97626 201.785 3.58321 201.785 3.09784C201.786 2.6151 202.033 2.22469 202.338 2.22469C202.339 2.22469 202.339 2.22469 202.339 2.22469L203.988 2.22996C204.293 2.22996 204.54 2.62301 204.54 3.10839C204.539 3.59112 204.292 3.98417 203.987 3.98417ZM228.713 3.98417C228.408 3.98417 228.16 3.59112 228.16 3.10839C228.159 2.62301 228.406 2.22996 228.713 2.22996L230.361 2.22469C230.667 2.22469 230.913 2.6151 230.915 3.10047C230.915 3.58321 230.669 3.97626 230.363 3.9789L228.714 3.98417H228.713ZM225.416 3.99209C225.111 3.99209 224.863 3.59904 224.863 3.1163C224.863 2.63093 225.11 2.23788 225.416 2.23788L227.064 2.2326C227.37 2.2326 227.616 2.62565 227.618 3.10839C227.618 3.59376 227.37 3.98681 227.066 3.98681L225.417 3.99209H225.416ZM207.283 3.99209L205.634 3.98681C205.329 3.98681 205.081 3.59376 205.082 3.10839C205.082 2.62565 205.33 2.2326 205.635 2.2326C205.635 2.2326 205.636 2.2326 205.636 2.2326L207.284 2.23788C207.589 2.23788 207.837 2.63093 207.837 3.1163C207.837 3.59904 207.589 3.99209 207.283 3.99209ZM222.119 3.99736C221.814 3.99736 221.566 3.60431 221.566 3.12158C221.566 2.6362 221.813 2.24315 222.119 2.24315L223.767 2.24051C224.073 2.24051 224.321 2.63356 224.321 3.1163C224.321 3.60168 224.073 3.99472 223.769 3.99472L222.119 3.99736ZM210.58 3.99736L208.931 3.99472C208.627 3.99472 208.379 3.60168 208.379 3.1163C208.379 2.63356 208.627 2.24051 208.933 2.24051L210.581 2.24315C210.886 2.24315 211.133 2.6362 211.133 3.12158C211.133 3.60431 210.886 3.99736 210.58 3.99736ZM218.817 4C218.512 4 218.265 3.60695 218.265 3.12421C218.265 2.63884 218.511 2.24579 218.817 2.24579H220.467C220.773 2.24579 221.021 2.6362 221.021 3.12158C221.021 3.60695 220.773 4 220.469 4H218.817ZM213.875 4C213.873 4 213.873 4 213.873 4H212.228C211.924 4 211.676 3.60695 211.676 3.12158C211.676 2.63884 211.924 2.24579 212.228 2.24579H213.875C214.179 2.24579 214.427 2.63884 214.427 3.12421C214.427 3.60695 214.179 4 213.875 4ZM217.168 4H215.522C215.216 4 214.968 3.60695 214.968 3.12421C214.968 2.63884 215.216 2.24579 215.522 2.24579H217.168C217.474 2.24579 217.721 2.63884 217.721 3.12421C217.721 3.60959 217.474 4 217.168 4Z" fill="#5E606F"/>
<path fill-rule="evenodd" clip-rule="evenodd" d="M255.348 4C255.331 4 255.312 4 255.293 3.99827C254.98 3.96886 254.747 3.68687 254.778 3.37201L254.797 3.16961L254.591 3.17653C254.274 3.18518 254.011 2.93606 254 2.61947C253.992 2.30115 254.24 2.03646 254.555 2.02608L255.41 2.00013C255.574 1.99667 255.732 2.06068 255.844 2.18005C255.958 2.30115 256.013 2.46377 255.997 2.62812L255.918 3.47927C255.889 3.77683 255.641 4 255.348 4Z" fill="#5E606F"/>
<path fill-rule="evenodd" clip-rule="evenodd" d="M185.428 10.05C185.427 10.05 185.427 10.05 185.427 10.05L185.31 10.0498C184.685 10.0498 184.579 10.0497 184.552 10.0497C184.236 10.0486 183.989 10.0255 184 9.99808C184.012 9.97065 184.272 9.94951 184.587 9.94996C184.634 9.95011 184.953 9.95011 185.313 9.95026H185.429C185.745 9.95026 186.001 9.9726 186 10.0002C185.999 10.0276 185.743 10.05 185.428 10.05Z" fill="#5E606F"/>
<path fill-rule="evenodd" clip-rule="evenodd" d="M188.176 11.7558C188.174 11.7558 188.173 11.7558 188.171 11.7558C187.487 11.7481 186.935 11.7377 186.532 11.7273C186.234 11.7195 185.996 11.3273 186 10.8519C186.004 10.3792 186.245 10 186.539 10C186.542 10 186.545 10 186.548 10C186.95 10.0104 187.5 10.0208 188.181 10.0286C188.478 10.0338 188.718 10.4234 188.715 10.9013C188.713 11.3766 188.471 11.7558 188.176 11.7558ZM191.445 11.7948C191.444 11.7948 191.443 11.7948 191.442 11.7948C190.858 11.7896 190.312 11.7818 189.807 11.7766C189.509 11.774 189.269 11.3844 189.271 10.9065C189.273 10.4338 189.515 10.0494 189.811 10.0494C189.812 10.0494 189.813 10.0494 189.815 10.0494C190.319 10.0571 190.865 10.0623 191.449 10.0675C191.747 10.0701 191.987 10.4597 191.985 10.9351C191.983 11.4104 191.742 11.7948 191.445 11.7948ZM194.713 11.8208C194.712 11.8208 194.711 11.8208 194.71 11.8208L193.076 11.8078C192.778 11.8052 192.538 11.4182 192.54 10.9403C192.541 10.4649 192.783 10.0805 193.079 10.0805C193.08 10.0805 193.081 10.0805 193.082 10.0805L194.715 10.0935C195.013 10.0961 195.254 10.4857 195.252 10.9636C195.251 11.439 195.009 11.8208 194.713 11.8208ZM197.979 11.8468C197.978 11.8468 197.977 11.8468 197.976 11.8468L196.343 11.8338C196.045 11.8312 195.805 11.4442 195.806 10.9662C195.808 10.4909 196.049 10.1065 196.346 10.1065C196.346 10.1065 196.347 10.1065 196.348 10.1065L197.981 10.1169C198.279 10.1195 198.519 10.5091 198.518 10.9844C198.517 11.4597 198.276 11.8468 197.979 11.8468ZM201.244 11.8649C201.243 11.8649 201.243 11.8649 201.242 11.8649L199.609 11.8545C199.311 11.8545 199.071 11.4649 199.072 10.9896C199.073 10.5117 199.314 10.1273 199.611 10.1273C199.612 10.1273 199.613 10.1273 199.613 10.1273L201.246 10.1377C201.544 10.1403 201.784 10.5273 201.783 11.0052C201.782 11.4805 201.541 11.8649 201.244 11.8649ZM204.509 11.8831C204.508 11.8831 204.507 11.8831 204.507 11.8831L202.874 11.8753C202.576 11.8727 202.336 11.4857 202.337 11.0078C202.338 10.5325 202.579 10.1481 202.876 10.1481C202.877 10.1481 202.877 10.1481 202.878 10.1481L204.51 10.1558C204.808 10.1584 205.049 10.5455 205.048 11.0234C205.047 11.4987 204.806 11.8831 204.509 11.8831ZM207.773 11.9013C207.773 11.9013 207.772 11.9013 207.771 11.9013L206.139 11.8909C205.841 11.8909 205.6 11.5039 205.601 11.026C205.602 10.5506 205.844 10.1662 206.141 10.1662C206.141 10.1662 206.142 10.1662 206.143 10.1662L207.775 10.174C208.073 10.174 208.314 10.5636 208.313 11.039C208.312 11.5143 208.07 11.9013 207.773 11.9013ZM211.037 11.9143C211.037 11.9143 211.037 11.9143 211.035 11.9143L209.403 11.9091C209.106 11.9065 208.865 11.5195 208.866 11.0416C208.866 10.5662 209.107 10.1792 209.404 10.1792C209.406 10.1792 209.406 10.1792 209.406 10.1792L211.039 10.187C211.337 10.1896 211.577 10.5766 211.577 11.0545C211.576 11.5299 211.334 11.9143 211.037 11.9143ZM214.302 11.9299C214.301 11.9299 214.301 11.9299 214.301 11.9299L212.668 11.9221C212.369 11.9221 212.129 11.5325 212.129 11.0571C212.131 10.5792 212.373 10.1948 212.67 10.1948C212.67 10.1948 212.67 10.1948 212.671 10.1948L214.302 10.2026C214.601 10.2026 214.841 10.5896 214.841 11.0675C214.841 11.5429 214.599 11.9299 214.302 11.9299ZM217.561 11.9403C217.561 11.9403 217.561 11.9403 217.559 11.9403L215.931 11.9351C215.635 11.9351 215.393 11.5455 215.394 11.0701C215.394 10.5922 215.636 10.2078 215.933 10.2078H215.935L217.562 10.213C217.859 10.2156 218.101 10.6026 218.101 11.0805C218.1 11.5558 217.858 11.9403 217.561 11.9403ZM220.824 11.9532H220.823L219.19 11.9481C218.892 11.9455 218.651 11.5584 218.651 11.0831C218.653 10.6052 218.893 10.2208 219.192 10.2208L220.826 10.226C221.123 10.226 221.365 10.613 221.363 11.0909C221.363 11.5662 221.121 11.9532 220.824 11.9532ZM224.093 11.9636C224.091 11.9636 224.091 11.9636 224.091 11.9636L222.459 11.9584C222.162 11.9584 221.92 11.5688 221.92 11.0935C221.921 10.6156 222.163 10.2312 222.46 10.2312L224.093 10.2364C224.391 10.2364 224.632 10.6234 224.632 11.1013C224.632 11.5766 224.39 11.9636 224.093 11.9636ZM227.356 11.9714H227.355L225.724 11.9688C225.425 11.9662 225.183 11.5792 225.185 11.1039C225.185 10.626 225.427 10.2416 225.724 10.2416H225.725L227.356 10.2442C227.655 10.2468 227.897 10.6338 227.895 11.1091C227.895 11.587 227.653 11.9714 227.356 11.9714ZM230.62 11.9818L228.987 11.9766C228.689 11.9766 228.448 11.5896 228.448 11.1117C228.448 10.6364 228.69 10.2494 228.987 10.2494C228.989 10.2494 228.989 10.2494 228.989 10.2494L230.621 10.2545C230.918 10.2545 231.16 10.6416 231.16 11.1195C231.159 11.5948 230.917 11.9818 230.62 11.9818ZM233.885 11.987C233.883 11.987 233.883 11.987 233.883 11.987L232.251 11.9844C231.954 11.9844 231.712 11.5974 231.712 11.1195C231.714 10.6442 231.954 10.2571 232.252 10.2571L233.885 10.2597C234.184 10.2623 234.424 10.6494 234.424 11.1247C234.424 11.6026 234.182 11.987 233.885 11.987ZM251.83 11.9896C251.533 11.9896 251.291 11.6052 251.291 11.1273C251.29 10.6519 251.532 10.2649 251.829 10.2623C252.434 10.2597 252.979 10.2571 253.46 10.2545H253.461C253.758 10.2545 254 10.639 254 11.1143C254.002 11.5922 253.761 11.9792 253.463 11.9818C252.982 11.9844 252.437 11.987 251.832 11.9896H251.83ZM237.148 11.9948L235.516 11.9922C235.217 11.9896 234.977 11.6026 234.977 11.1273C234.977 10.6494 235.219 10.2649 235.516 10.2649H235.518L237.148 10.2675C237.447 10.2675 237.689 10.6545 237.689 11.1325C237.687 11.6078 237.447 11.9948 237.148 11.9948ZM248.57 11.9974C248.271 11.9974 248.03 11.6104 248.03 11.1351C248.03 10.6571 248.271 10.2701 248.568 10.2701L250.199 10.2675C250.498 10.2675 250.74 10.6545 250.74 11.1299C250.74 11.6078 250.498 11.9948 250.201 11.9948L248.57 11.9974ZM240.414 11.9974L238.781 11.9948C238.482 11.9948 238.241 11.6078 238.242 11.1325C238.242 10.6545 238.482 10.2675 238.781 10.2675L240.414 10.2701C240.712 10.2701 240.952 10.6571 240.952 11.1351C240.952 11.6104 240.711 11.9974 240.414 11.9974ZM243.679 12C243.677 12 243.677 12 243.677 12H242.046C241.748 12 241.506 11.613 241.506 11.1351C241.507 10.6571 241.748 10.2727 242.046 10.2727H243.679C243.976 10.2727 244.218 10.6597 244.218 11.1377C244.218 11.613 243.976 12 243.679 12ZM245.308 12C245.011 12 244.769 11.613 244.769 11.1351C244.769 10.6597 245.011 10.2727 245.308 10.2727H246.939C247.238 10.2727 247.478 10.6571 247.478 11.1351C247.479 11.613 247.238 12 246.939 12H245.308Z" fill="#5E606F"/>
<path fill-rule="evenodd" clip-rule="evenodd" d="M254.573 10.05C254.258 10.05 254.003 10.0282 254 10.001C253.998 9.97365 254.251 9.95134 254.568 9.95104C254.998 9.95074 255.28 9.95044 255.408 9.95C255.723 9.94881 255.988 9.97038 256 9.99774C256.01 10.025 255.764 10.0479 255.447 10.0489C255.31 10.0494 255.026 10.0497 254.578 10.05C254.577 10.05 254.575 10.05 254.573 10.05Z" fill="#5E606F"/>
<path fill-rule="evenodd" clip-rule="evenodd" d="M194 4C193.973 4 193.95 3.74527 193.95 3.42857L193.95 2.57315C193.95 2.25645 193.972 2 194 2C194 2 194 2 194 2C194.028 2 194.05 2.25473 194.05 2.57143L194.05 3.42685C194.05 3.74182 194.028 3.99828 194 4C194 4 194 4 194 4Z" fill="#5E606F"/>
<path fill-rule="evenodd" clip-rule="evenodd" d="M244 4C244 4 244 4 244 4C243.972 3.99828 243.95 3.74182 243.95 3.42685L243.95 2.57143C243.95 2.25473 243.973 2 244 2H244C244.028 2 244.05 2.25645 244.05 2.57315L244.05 3.42857C244.05 3.74527 244.028 4 244 4Z" fill="#5E606F"/>
<path fill-rule="evenodd" clip-rule="evenodd" d="M182 8.00086C182 5.79076 183.791 4 186 4C188.209 4 190 5.79076 190 8.00086C190 10.2092 188.209 12 186 12C183.791 12 182 10.2092 182 8.00086Z" fill="white"/>
<g clip-path="url(#clip0_633_7166)">
<path d="M208.679 51V21.6H220.712C223.148 21.6 225.08 22.048 226.508 22.944C227.95 23.826 228.979 24.967 229.595 26.367C230.211 27.753 230.519 29.195 230.519 30.693C230.519 31.743 230.337 32.8 229.973 33.864C229.623 34.914 229.056 35.887 228.272 36.783C227.488 37.679 226.473 38.4 225.227 38.946C223.981 39.478 222.476 39.744 220.712 39.744H213.53V51H208.679ZM213.53 35.208H220.964C222.098 35.208 223.001 34.984 223.673 34.536C224.345 34.074 224.828 33.5 225.122 32.814C225.416 32.114 225.563 31.407 225.563 30.693C225.563 30.049 225.43 29.377 225.164 28.677C224.912 27.963 224.45 27.361 223.778 26.871C223.106 26.381 222.168 26.136 220.964 26.136H213.53V35.208Z" fill="black"/>
<path d="M216.012 60.0491V30.6491H228.045C230.481 30.6491 232.413 31.0971 233.841 31.9931C235.283 32.8751 236.312 34.0161 236.928 35.4161C237.544 36.8021 237.852 38.2441 237.852 39.7421C237.852 40.7921 237.67 41.8491 237.306 42.9131C236.956 43.9631 236.389 44.9361 235.605 45.8321C234.821 46.7281 233.806 47.4491 232.56 47.9951C231.314 48.5271 229.809 48.7931 228.045 48.7931H220.863V60.0491H216.012ZM220.863 44.2571H228.297C229.431 44.2571 230.334 44.0331 231.006 43.5851C231.678 43.1231 232.161 42.5491 232.455 41.8631C232.749 41.1631 232.896 40.4561 232.896 39.7421C232.896 39.0981 232.763 38.4261 232.497 37.7261C232.245 37.0121 231.783 36.4101 231.111 35.9201C230.439 35.4301 229.501 35.1851 228.297 35.1851H220.863V44.2571Z" fill="#005A00"/>
</g>
<defs>
<clipPath id="clip0_633_7166">
<rect width="40" height="51.0491" fill="white" transform="translate(202 14)"/>
</clipPath>
</defs>
</svg>
